        <svg
          width="24"
          height="24"
          viewBox="0 0 24 24"
          fill="none"
          xmlns="http://www.w3.org/2000/svg"
        >
          <path
            d="M12 19C11.158 19 10.315 18.822 9.496 18.505L12 19ZM12 19C15.495 19 18.99 15.967 20.882 12.468C21.039 12.177 21.039 11.824 20.882 11.533C20.384 10.612 19.77 9.73 19.079 8.921M5 19L19 5M9.773 14.227C8.543 12.997 8.543 11.002 9.773 9.772C11.003 8.542 12.998 8.542 14.228 9.772"
            stroke="#80869A"
            stroke-width="1.5"
            stroke-linecap="round"
            stroke-linejoin="round"
          />
          <path
            d="M17.0438 6.956C15.4968 5.759 13.7478 5 11.9998 5C8.50475 5 5.00975 8.033 3.11775 11.533C2.96075 11.824 2.96075 12.177 3.11775 12.468C4.06375 14.217 5.40975 15.849 6.95575 17.045"
            stroke="#80869A"
            stroke-width="1.5"
            stroke-linecap="round"
            stroke-linejoin="round"
          />
        </svg>